# AST/ASF file generated using VICON BodyLanguage
# -----------------------------------------------
:version 1.10
:name VICON
:units
  mass 1.0
  length 0.45
  angle deg
:documentation
   .ast/.asf automatically generated from VICON data using
   VICON BodyBuilder and BodyLanguage model FoxedUp or BRILLIANT.MOD
:root
   order TX TY TZ RX RY RZ
   axis XYZ
   position 0 0 0  
   orientation 0 0 0 
:bonedata
  begin
     id 1 
     name lhipjoint
     direction 0.627412 -0.730575 0.26947 
     length 2.49821 
     axis 0 0 0  XYZ
  end
  begin
     id 2 
     name lfemur
     direction 0.34202 -0.939693 0  
     length 6.89165  
     axis 0 0 20  XYZ
    dof rx ry rz
    limits (-160.0 20.0)
           (-70.0 70.0)
           (-60.0 70.0)
  end
  begin
     id 3 
     name ltibia
     direction 0.34202 -0.939693 0   
     length 7.91287   
     axis 0 0 20   XYZ
    dof rx
    limits (-10.0 170.0)
  end
  begin
     id 4 
     name lfoot
     direction 0.0941675 -0.258723 0.96135   
     length 2.16919   
     axis -90 7.62852e-016 20   XYZ
    dof rx rz
    limits (-45.0 90.0)
           (-70.0 20.0)
  end
  begin
     id 5 
     name ltoes
     direction 1.5347e-011 -4.21941e-011 1   
     length 1.08535   
     axis -90 7.62852e-016 20   XYZ
    dof rx
    limits (-90.0 20.0)
  end
  begin
     id 6 
     name rhipjoint
     direction -0.614241 -0.740361 0.27308   
     length 2.46519  
     axis 0 0 0  XYZ 
  end
  begin
     id 7 
     name rfemur
     direction -0.34202 -0.939693 0   
     length 7.27512   
     axis 0 0 -20   XYZ
    dof rx ry rz
    limits (-160.0 20.0)
           (-70.0 70.0)
           (-70.0 60.0)
  end
  begin
     id 8 
     name rtibia
     direction -0.34202 -0.939693 0   
     length 7.89523   
     axis 0 0 -20   XYZ
    dof rx
    limits (-10.0 170.0)
 end
 begin
     id 9 
     name rfoot
     direction -0.0860444 -0.236405 0.967837   
     length 2.29534  
     axis -90 -7.62852e-016 -20   XYZ
    dof rx rz
    limits (-45.0 90.0)
           (-20.0 70.0)
  end
  begin
     id 10 
     name rtoes
     direction -1.53608e-011 -4.21861e-011 1   
     length 1.14915   
     axis -90 -7.62852e-016 -20   XYZ
    dof rx
    limits (-90.0 20.0)
  end
  begin
     id 11 
     name lowerback
     direction -0.00734074 0.997215 -0.0742143   
     length 2.13469   
     axis 0 0 0   XYZ
    dof rx ry rz
    limits (-20.0 45.0)
           (-30.0 30.0)
           (-30.0 30.0)
  end
  begin
     id 12 
     name upperback
     direction 0.0285728 0.99958 -0.00488656   
     length 2.13416   
     axis 0 0 0   XYZ
    dof rx ry rz
    limits (-20.0 45.0)
           (-30.0 30.0)
           (-30.0 30.0)
  end
  begin
     id 13 
     name thorax
     direction 0.0316844 0.999056 0.0297249   
     length 2.14463   
     axis 0 0 0   XYZ
    dof rx ry rz
    limits (-20.0 45.0)
           (-30.0 30.0)
           (-30.0 30.0)
  end
  begin
     id 14 
     name lowerneck
     direction -0.0281545 0.996802 0.0747864   
     length 1.79004   
     axis 0 0 0   XYZ
    dof rx ry rz
    limits (-20.0 45.0)
           (-30.0 30.0)
           (-30.0 30.0)
  end
  begin
     id 15 
     name upperneck
     direction -0.00100185 0.982732 -0.185031   
     length 1.79988   
     axis 0 0 0   XYZ
    dof rx ry rz
    limits (-20.0 45.0)
           (-30.0 30.0)
           (-30.0 30.0)
  end
  begin
     id 16
     name head
     direction 0.00403747 0.997539 -0.0700022  
     length 1.81696  
     axis 0 0 0   XYZ
    dof rx ry rz
    limits (-20.0 45.0)
           (-30.0 30.0)
           (-30.0 30.0)
  end
  begin
     id 17 
     name lclavicle
     direction 0.959882 0.242905 -0.140082  
     length 3.87755  
     axis 0 0 0   XYZ
    dof ry rz
    limits (-20.0 10.0)
           (0.0 20.0)
  end
  begin
     id 18 
     name lhumerus
     direction 1 -4.4895e-011 3.76166e-027   
     length 5.14601   
     axis 180 -30 -90   XYZ
    dof rx ry rz
    limits (-60.0 90.0)
           (-90.0 90.0)
           (-90.0 90.0)
  end
  begin
     id 19
     name lradius
     direction 1 -4.48966e-011 -3.24039e-027   
     length 3.64452   
     axis 180 -30 -90   XYZ
    dof rx
    limits (-10.0 170.0)
  end
  begin
     id 20
     name lwrist
     direction 1 -4.48999e-011 2.57119e-027   
     length 1.82226   
     axis -1.61769e-015 90 90   XYZ
    dof ry
    limits (-180.0 0.0)
 end
  begin
     id 21 
     name lhand
     direction 1 -4.48961e-011 5.13984e-027   
     length 0.56228   
     axis -3.27988e-015 90 90   XYZ
    dof rx rz
    limits (-90.0 90.0)
           (-45.0 45.0)
  end
  begin
     id 22 
     name lfingers
     direction 1 -4.48991e-011 1.02836e-026   
     length 0.453325   
     axis -6.5598e-015 90 90   XYZ
    dof rx
    limits (0.0 90.0)
  end
  begin
     id 23
     name lthumb
     direction 0.707107 -6.34956e-011 0.707107   
     length 0.650886   
     axis -90 45 2.19363e-014   XYZ
    dof rx rz
    limits (-45.0 45.0)
           (-45.0 45.0)
  end
  begin
     id 24 
     name rclavicle
     direction -0.929201 0.345171 -0.132073   
     length 3.55416  
     axis 0 0 0   XYZ 
    dof ry rz
    limits (-10.0 20.0)
           (-20.0 0.0)
  end
  begin
     id 25 
     name rhumerus
     direction -1 -4.48979e-011 4.53734e-027  
     length 5.33913   
     axis 180 30 90   XYZ
    dof rx ry rz
    limits (-90.0 60.0)
           (-90.0 90.0)
           (-90.0 90.0)
  end
  begin
     id 26 
     name rradius
     direction -1 -4.4896e-011 -2.24007e-027   
     length 3.56478   
     axis 180 30 90   XYZ
    dof rx
    limits (-10.0 170.0)
  end
  begin
     id 27 
     name rwrist
     direction -1 -4.48923e-011 2.56866e-027   
     length 1.78239   
     axis -1.61769e-015 -90 -90   XYZ
    dof ry
    limits (-180.0 0.0)
  end
  begin
     id 28
     name rhand
     direction -1 -4.48914e-011 5.13667e-027   
     length 0.857474   
     axis -3.27988e-015 -90 -90   XYZ
    dof rx rz
    limits (-90.0 90.0)
           (-45.0 45.0)
  end
  begin
     id 29
     name rfingers
     direction -1 -4.49112e-011 1.02998e-026   
     length 0.691318   
     axis -6.5598e-015 -90 -90   XYZ
    dof rx
    limits (0.0 90.0)
  end
  begin
     id 30
     name rthumb
     direction -0.707107 -6.34979e-011 0.707107   
     length 0.992598   
     axis -90 -45 -2.19363e-014   XYZ
    dof rx rz
    limits (-45.0 45.0)
           (-45.0 45.0)
  end
:hierarchy
  begin
    root lhipjoint rhipjoint lowerback
    lhipjoint lfemur
    lfemur ltibia
    ltibia lfoot
    lfoot ltoes
    rhipjoint rfemur
    rfemur rtibia
    rtibia rfoot
    rfoot rtoes
    lowerback upperback
    upperback thorax
    thorax lowerneck lclavicle rclavicle
    lowerneck upperneck
    upperneck head
    lclavicle lhumerus
    lhumerus lradius
    lradius lwrist
    lwrist lhand lthumb
    lhand lfingers
    rclavicle rhumerus
    rhumerus rradius
    rradius rwrist
    rwrist rhand rthumb
    rhand rfingers
  end

#!OML:ASF F:\VICON\USERDATA\INSTALL\Justin4\Justin4.ASF
:FULLY-SPECIFIED
:DEGREES
783
root -4.69783 16.9241 12.8443 -4.49958 -27.8246 1.23458
lowerback 25.9178 2.55794 1.54235
upperback 2.55706 3.85404 1.21724
thorax -11.5693 1.70997 -0.857382
lowerneck -9.43989 -5.01291 -5.08933
upperneck 11.9043 -6.93562 6.57554
head 5.54808 -3.17407 2.34845
rclavicle -6.34123e-014 3.18055e-014
rhumerus 27.8297 -2.68444 -52.0681
rradius 83.6409
rwrist 17.9375
rhand -10.5306 6.03577
rfingers 7.12502
rthumb 15.4726 -23.365
lclavicle -6.34123e-014 3.18055e-014
lhumerus -0.930445 -33.4471 90.4324
lradius 128.369
lwrist 1.83885
lhand -12.92 6.73554
lfingers 7.12502
lthumb 13.1703 36.2996
rfemur -32.9033 -17.6442 3.95952
rtibia 55.5881
rfoot -1.60331 -8.94127
rtoes 0.657771
lfemur -29.5609 -0.0850899 -3.56681
ltibia 65.5766
lfoot 6.3039 -13.9451
ltoes -37.2299
784
root -4.79554 16.9285 12.7869 -4.55567 -25.8875 0.706812
lowerback 25.6159 2.37179 1.1733
upperback 2.78766 3.52367 1.43208
thorax -11.1876 1.58962 -0.273163
lowerneck -10.6174 -5.46658 -4.2933
upperneck 11.6894 -7.62186 6.59113
head 5.69374 -3.44871 2.13796
rclavicle 3.43897e-014 1.11319e-014
rhumerus 25.5664 -1.80221 -52.2319
rradius 87.9173
rwrist 12.9617
rhand -9.87698 5.90119
rfingers 7.12502
rthumb 16.1021 -23.4498
lclavicle 3.43897e-014 1.11319e-014
lhumerus -0.208374 -33.7389 89.6379
lradius 128.188
lwrist 1.69213
lhand -12.7109 6.69316
lfingers 7.12502
lthumb 13.3719 36.2441
rfemur -31.1475 -17.1417 3.17767
rtibia 53.6124
rfoot 1.04679 -9.08288
rtoes -0.28432
lfemur -27.6248 -0.176264 -2.87253
ltibia 65.7738
lfoot 6.74852 -14.6158
ltoes -38.2587
785
root -4.90219 16.9286 12.7366 -4.3558 -23.8851 -0.385325
lowerback 25.1327 1.90194 1.31787
upperback 2.85546 2.9892 1.79957
thorax -10.87 1.35224 0.254529
lowerneck -11.272 -5.71037 -4.01905
upperneck 11.7833 -7.98045 6.55844
head 5.84258 -3.59699 2.03322
rclavicle 8.94531e-015 7.95139e-016
rhumerus 23.063 -0.501413 -52.8904
rradius 91.7953
rwrist 13.0652
rhand -8.28942 6.001
rfingers 7.12502
rthumb 17.6303 -23.2197
lclavicle 8.94531e-015 7.95139e-016
lhumerus -0.180477 -33.4332 89.1398
lradius 128.108
lwrist 2.14239
lhand -13.8291 8.69172
lfingers 7.12502
lthumb 12.2939 38.3103
rfemur -29.3017 -16.3823 3.04976
rtibia 51.8107
rfoot 3.43559 -9.26751
rtoes -0.10172
lfemur -25.6717 -0.398209 -1.42413
ltibia 65.3935
lfoot 7.39263 -14.5933
ltoes -37.2181
786
root -5.0088 16.9257 12.6951 -4.05505 -21.7683 -1.23083
lowerback 24.099 1.23619 1.39709
upperback 2.92145 2.15358 2.06938
thorax -10.2505 0.976158 0.808723
lowerneck -11.4277 -5.78553 -4.16304
upperneck 11.9676 -8.06864 6.57776
head 5.93843 -3.63825 2.04817
rclavicle -9.54166e-015 1.43125e-014
rhumerus 20.5059 0.888872 -53.8262
rradius 94.9182
rwrist 17.4709
rhand -7.19536 6.44699
rfingers 7.12502
rthumb 18.6829 -22.6758
lclavicle -9.54166e-015 1.43125e-014
lhumerus -0.4921 -32.7457 88.7775
lradius 128.144
lwrist 2.63843
lhand -14.1814 9.92645
lfingers 7.12502
lthumb 11.9542 39.5651
rfemur -27.6962 -15.4835 2.76467
rtibia 50.2587
rfoot 5.54763 -9.5263
rtoes 2.64143
lfemur -23.9399 -1.05983 -0.156355
ltibia 64.4413
lfoot 7.69273 -14.7135
ltoes -37.5176
787
root -5.11401 16.909 12.6547 -3.71495 -19.7823 -1.63713
lowerback 22.783 0.570906 1.06386
upperback 3.0519 1.18239 2.1781
thorax -9.40054 0.54181 1.43524
lowerneck -11.6222 -5.72033 -4.46214
upperneck 12.0822 -7.95801 6.76455
head 6.02138 -3.57843 2.15929
rclavicle 1.89839e-014 1.23246e-014
rhumerus 18.2325 2.12667 -55.1228
rradius 97.4122
rwrist 22.881
rhand -6.30646 6.94763
rfingers 7.12502
rthumb 19.5377 -22.0907
lclavicle 1.89839e-014 1.23246e-014
lhumerus -0.531632 -31.4768 88.1921
lradius 128.059
lwrist 3.67294
lhand -13.7166 9.72949
lfingers 7.12502
lthumb 12.4023 39.3416
rfemur -26.6086 -14.4811 2.21907
rtibia 49.0739
rfoot 7.76104 -9.54091
rtoes 4.039
lfemur -22.2522 -1.85373 0.663378
ltibia 62.8877
lfoot 7.34606 -15.2526
ltoes -39.8665
